HIERARCHY
ROOT ETY1
{
	OFFSET 0.000000 0.000000 0.000000
	CHANNELS 6 Xposition Yposition Zposition Xrotation Yrotation Zrotation
	JOINT N_ALL
	{
		OFFSET 0.000000 0.000000 0.000000
		CHANNELS 3 Xrotation Yrotation Zrotation
		JOINT locator2
		{
			OFFSET 0.000000 0.000000 63.674999
			CHANNELS 3 Xrotation Yrotation Zrotation
			JOINT hara
			{
				OFFSET -0.000000 -0.000000 0.472500
				CHANNELS 3 Xrotation Yrotation Zrotation
				JOINT mune
				{
					OFFSET -0.000005 -0.000000 14.647499
					CHANNELS 3 Xrotation Yrotation Zrotation
					JOINT kubi
					{
						OFFSET -0.565367 0.000000 13.797264
						CHANNELS 3 Xrotation Yrotation Zrotation
						JOINT kao
						{
							OFFSET 0.709599 -0.000000 1.686798
							CHANNELS 3 Xrotation Yrotation Zrotation
							JOINT ago
							{
								OFFSET 1.521274 -0.000001 2.195969
								CHANNELS 3 Xrotation Yrotation Zrotation
								End Site
								{
									OFFSET -0.000000 0.000000 0.365990
								}
							}
							JOINT eyebrow
							{
								OFFSET 2.744157 -0.000001 4.250847
								CHANNELS 3 Xrotation Yrotation Zrotation
								End Site
								{
									OFFSET -0.000000 0.000000 0.365990
								}
							}
							JOINT lip
							{
								OFFSET 1.419795 -0.000001 0.927528
								CHANNELS 3 Xrotation Yrotation Zrotation
								End Site
								{
									OFFSET 0.365992 -0.000000 0.000000
								}
							}
						}
					}
					JOINT L_sako
					{
						OFFSET -0.472501 6.525000 10.465401
						CHANNELS 3 Xrotation Yrotation Zrotation
						JOINT L_kata
						{
							OFFSET -0.000001 5.850000 -0.581734
							CHANNELS 3 Xrotation Yrotation Zrotation
							JOINT L_hiji
							{
								OFFSET -0.483016 15.785759 -0.000015
								CHANNELS 3 Xrotation Yrotation Zrotation
								JOINT L_te
								{
									OFFSET 0.611527 17.032738 -0.013641
									CHANNELS 3 Xrotation Yrotation Zrotation
									JOINT LeftHandIndex1
									{
										OFFSET 2.549848 6.470253 0.791817
										CHANNELS 3 Xrotation Yrotation Zrotation
										JOINT LeftHandIndex2
										{
											OFFSET -0.000001 2.289848 0.000000
											CHANNELS 3 Xrotation Yrotation Zrotation
											JOINT LeftHandIndex3
											{
												OFFSET -0.000001 2.268135 0.000000
												CHANNELS 3 Xrotation Yrotation Zrotation
												End Site
												{
													OFFSET 0.000000 0.365993 0.000000
												}
											}
										}
									}
									JOINT LeftHandMiddle1
									{
										OFFSET 0.874708 6.694298 1.118919
										CHANNELS 3 Xrotation Yrotation Zrotation
										JOINT LeftHandMiddle2
										{
											OFFSET -0.000001 2.683815 0.000000
											CHANNELS 3 Xrotation Yrotation Zrotation
											JOINT LeftHandMiddle3
											{
												OFFSET -0.000001 2.217308 0.000000
												CHANNELS 3 Xrotation Yrotation Zrotation
												End Site
												{
													OFFSET -0.000000 0.365993 0.000000
												}
											}
										}
									}
									JOINT LeftHandPinky1
									{
										OFFSET -2.442180 5.931721 0.497902
										CHANNELS 3 Xrotation Yrotation Zrotation
										JOINT LeftHandPinky2
										{
											OFFSET -0.000000 2.137306 0.000000
											CHANNELS 3 Xrotation Yrotation Zrotation
											JOINT LeftHandPinky3
											{
												OFFSET -0.000000 1.836044 0.000000
												CHANNELS 3 Xrotation Yrotation Zrotation
												End Site
												{
													OFFSET 0.000000 0.365993 0.000000
												}
											}
										}
									}
									JOINT LeftHandRing1
									{
										OFFSET -0.853656 6.338440 0.870934
										CHANNELS 3 Xrotation Yrotation Zrotation
										JOINT LeftHandRing2
										{
											OFFSET -0.000001 2.531284 0.000000
											CHANNELS 3 Xrotation Yrotation Zrotation
											JOINT LeftHandRing3
											{
												OFFSET -0.000001 2.217308 0.000000
												CHANNELS 3 Xrotation Yrotation Zrotation
												End Site
												{
													OFFSET -0.000000 0.365993 0.000000
												}
											}
										}
									}
									JOINT LeftHandThumb1
									{
										OFFSET 2.594638 1.377514 -1.567856
										CHANNELS 3 Xrotation Yrotation Zrotation
										JOINT LeftHandThumb2
										{
											OFFSET 1.626614 2.409187 0.000557
											CHANNELS 3 Xrotation Yrotation Zrotation
											JOINT LeftHandThumb3
											{
												OFFSET 0.823900 2.113201 0.000290
												CHANNELS 3 Xrotation Yrotation Zrotation
												End Site
												{
													OFFSET 0.000000 0.365993 0.000000
												}
											}
										}
									}
								}
							}
						}
					}
					JOINT R_sako
					{
						OFFSET -0.472506 -6.525000 10.465546
						CHANNELS 3 Xrotation Yrotation Zrotation
						JOINT R_kata
						{
							OFFSET 0.000002 -5.850000 -0.581696
							CHANNELS 3 Xrotation Yrotation Zrotation
							JOINT R_hiji
							{
								OFFSET -0.483008 -15.785765 -0.000015
								CHANNELS 3 Xrotation Yrotation Zrotation
								JOINT R_te
								{
									OFFSET 0.611537 -17.032732 -0.013748
									CHANNELS 3 Xrotation Yrotation Zrotation
									JOINT RightHandIndex1
									{
										OFFSET 2.550124 -6.470253 0.790878
										CHANNELS 3 Xrotation Yrotation Zrotation
										JOINT RightHandIndex2
										{
											OFFSET 0.000001 -2.289848 0.000000
											CHANNELS 3 Xrotation Yrotation Zrotation
											JOINT RightHandIndex3
											{
												OFFSET 0.000001 -2.268135 0.000000
												CHANNELS 3 Xrotation Yrotation Zrotation
												End Site
												{
													OFFSET 0.000000 -0.365993 0.000000
												}
											}
										}
									}
									JOINT RightHandMiddle1
									{
										OFFSET 0.875098 -6.694302 1.118561
										CHANNELS 3 Xrotation Yrotation Zrotation
										JOINT RightHandMiddle2
										{
											OFFSET 0.000001 -2.683807 0.000000
											CHANNELS 3 Xrotation Yrotation Zrotation
											JOINT RightHandMiddle3
											{
												OFFSET 0.000001 -2.217308 0.000000
												CHANNELS 3 Xrotation Yrotation Zrotation
												End Site
												{
													OFFSET 0.000000 -0.365993 0.000000
												}
											}
										}
									}
									JOINT RightHandPinky1
									{
										OFFSET -2.442005 -5.931721 0.498680
										CHANNELS 3 Xrotation Yrotation Zrotation
										JOINT RightHandPinky2
										{
											OFFSET 0.000000 -2.137306 0.000000
											CHANNELS 3 Xrotation Yrotation Zrotation
											JOINT RightHandPinky3
											{
												OFFSET 0.000000 -1.836044 0.000000
												CHANNELS 3 Xrotation Yrotation Zrotation
												End Site
												{
													OFFSET 0.000000 -0.365993 0.000000
												}
											}
										}
									}
									JOINT RightHandRing1
									{
										OFFSET -0.853352 -6.338440 0.871170
										CHANNELS 3 Xrotation Yrotation Zrotation
										JOINT RightHandRing2
										{
											OFFSET 0.000001 -2.531284 0.000000
											CHANNELS 3 Xrotation Yrotation Zrotation
											JOINT RightHandRing3
											{
												OFFSET 0.000001 -2.217308 0.000000
												CHANNELS 3 Xrotation Yrotation Zrotation
												End Site
												{
													OFFSET 0.000000 -0.365993 0.000000
												}
											}
										}
									}
									JOINT RightHandThumb1
									{
										OFFSET 2.594098 -1.377514 -1.568817
										CHANNELS 3 Xrotation Yrotation Zrotation
										JOINT RightHandThumb2
										{
											OFFSET 1.626616 -2.409184 0.000000
											CHANNELS 3 Xrotation Yrotation Zrotation
											JOINT RightHandThumb3
											{
												OFFSET 0.823900 -2.113201 0.000000
												CHANNELS 3 Xrotation Yrotation Zrotation
												End Site
												{
													OFFSET 0.000000 -0.365993 0.000000
												}
											}
										}
									}
								}
							}
						}
					}
				}
			}
			JOINT koshi
			{
				OFFSET 0.000000 0.000000 0.000000
				CHANNELS 3 Xrotation Yrotation Zrotation
				JOINT L_momo
				{
					OFFSET 0.000005 5.033075 -8.541428
					CHANNELS 3 Xrotation Yrotation Zrotation
					JOINT L_hiza
					{
						OFFSET 0.236263 0.000015 -23.625002
						CHANNELS 3 Xrotation Yrotation Zrotation
						JOINT L_ashi
						{
							OFFSET -0.944986 0.000017 -25.908707
							CHANNELS 3 Xrotation Yrotation Zrotation
							JOINT L_ashi2
							{
								OFFSET 3.767458 0.000001 -3.875652
								CHANNELS 3 Xrotation Yrotation Zrotation
								End Site
								{
									OFFSET 0.365992 0.000000 0.000000
								}
							}
						}
					}
				}
				JOINT R_momo
				{
					OFFSET 0.000001 -5.033065 -8.541435
					CHANNELS 3 Xrotation Yrotation Zrotation
					JOINT R_hiza
					{
						OFFSET 0.236263 0.000015 -23.624998
						CHANNELS 3 Xrotation Yrotation Zrotation
						JOINT R_ashi
						{
							OFFSET -0.944986 0.000017 -25.908707
							CHANNELS 3 Xrotation Yrotation Zrotation
							JOINT R_ashi2
							{
								OFFSET 3.767459 0.000001 -3.875652
								CHANNELS 3 Xrotation Yrotation Zrotation
								End Site
								{
									OFFSET 0.365992 0.000000 0.000000
								}
							}
						}
					}
				}
			}
		}
	}
}
MOTION
Frames: 4
Frame Time: 0.041667
0.000000 0.000000 0.000000 -0.000000 0.000000 -89.999982 -0.000000 0.000000 -0.000000 -0.000055 0.000003 0.000000 0.510437 15.366763 -143.269338 7.605713 12.642693 -8.846079 -25.670704 2.825553 31.370758 9.711117 -4.295757 20.041699 0.000005 14.121259 0.000001 0.000000 2.362172 -0.000016 -0.000004 -4.236047 0.000002 -21.242327 -0.140186 -7.133656 -1.428474 9.054427 -78.077696 -46.349384 -5.651372 -65.132172 -5.198585 -11.328525 -10.693426 -75.820059 11.726759 0.132885 -97.765730 0.022502 -0.019617 -97.765730 0.022478 -0.019622 -64.647857 0.011303 -0.017905 -96.700486 0.022096 -0.019685 -96.700480 0.022095 -0.019692 -86.178225 -10.236481 -0.019373 -90.743045 0.020041 -0.019802 -102.644178 0.024141 -0.019322 -77.179874 0.015388 -0.019322 -96.158012 0.021910 -0.019713 -96.158019 0.021906 -0.019706 -19.431053 1.345935 4.885662 -0.015184 -0.007096 50.065662 -0.017582 -0.010691 62.619529 1.882813 -0.201911 -3.339230 26.398498 10.680636 -52.451201 -28.106341 -18.597722 105.652692 -17.639160 1.281130 2.487721 73.090134 11.545496 -0.413139 94.790376 0.000027 0.000043 95.650816 0.000048 0.000050 62.247680 0.000040 0.000030 94.161835 0.000065 0.000019 95.029979 0.000064 0.000019 83.897167 -9.978863 -0.087182 88.546777 0.000061 0.000041 102.200967 0.000050 0.000037 74.591779 0.000049 0.000027 93.584233 0.000063 0.000022 94.532236 0.000063 0.000018 18.914995 -1.774366 -4.901617 0.000030 -0.000015 -49.378781 0.000040 -0.000030 -61.000925 -12.694503 11.239310 -123.161739 13.261797 8.169043 16.271399 0.242975 47.392203 2.352531 -12.204708 -33.564687 5.103680 -0.037707 -2.182560 -0.072311 -16.048679 -19.367599 -7.053333 0.119803 35.296024 0.123606 8.988375 6.499973 19.445123 2.679976 -5.313739 0.044779 
0.000000 0.000000 0.000000 -0.000000 0.000000 -89.999982 -0.000000 0.000000 -0.000000 -0.000055 0.000003 0.000000 -0.790248 15.867366 -138.269065 6.513741 14.321220 -7.916439 -24.223314 2.941589 30.646844 10.980025 -3.797174 18.813859 0.000005 13.655047 0.000001 0.000001 2.303780 -0.000017 -0.000003 -4.341818 0.000001 -24.773755 0.035486 -7.719152 -0.367587 10.229503 -76.420705 -44.900543 -8.747231 -62.092287 -11.829614 -9.784052 -12.954220 -75.604614 11.709774 0.129816 -97.557115 0.022426 -0.019627 -97.557115 0.022409 -0.019631 -64.690026 0.011317 -0.017912 -96.494221 0.022024 -0.019695 -96.494221 0.022024 -0.019701 -85.962486 -10.221843 -0.019827 -90.532197 0.019968 -0.019803 -102.634555 0.024138 -0.019325 -76.971779 0.015318 -0.019307 -95.952888 0.021838 -0.019720 -95.952888 0.021835 -0.019714 -19.394819 1.346694 4.845585 -0.015183 -0.007093 50.057637 -0.017586 -0.010693 62.630813 4.600407 -0.167878 -2.727081 30.507450 12.162648 -53.984272 -34.568783 -19.619717 100.093356 -18.572647 0.525368 7.697567 73.257549 11.549800 -0.399916 95.001402 0.000029 0.000042 95.758760 0.000046 0.000043 62.404324 0.000041 0.000026 94.320254 0.000064 0.000019 95.086349 0.000064 0.000020 84.008731 -9.998134 -0.076737 88.659243 0.000058 0.000040 102.245541 0.000051 0.000038 74.742405 0.000048 0.000027 93.750336 0.000062 0.000018 94.582376 0.000059 0.000020 18.956838 -1.388147 -4.877907 0.000029 -0.000018 -49.454815 0.000044 -0.000028 -61.141989 -12.235491 10.261499 -119.521590 14.266673 5.932034 14.078367 0.264101 48.519372 4.600859 -13.994638 -33.219595 1.137517 -0.002232 -2.103250 -0.087271 -16.798230 -20.325897 -8.088808 0.131333 39.422441 1.923898 9.424405 4.221229 18.802027 2.309873 -7.255607 0.022158 
0.000000 0.000000 0.000000 -0.000000 0.000000 -89.999982 -0.000000 0.000000 -0.000000 -0.000055 0.000003 0.000000 -1.521673 15.293673 -133.434425 5.265504 14.787899 -7.820764 -22.775976 3.057462 29.916867 12.252103 -3.637152 17.639271 0.000004 13.189462 0.000001 0.000001 2.244771 -0.000016 -0.000004 -4.447522 0.000000 -25.842487 -0.123335 -7.480060 -0.284164 11.190756 -75.510098 -44.667750 -12.433016 -59.089927 -18.559931 -8.190472 -15.614516 -75.389142 11.692799 0.126128 -97.348562 0.022356 -0.019637 -97.348562 0.022335 -0.019641 -64.326551 0.011204 -0.017857 -96.287902 0.021953 -0.019700 -96.287902 0.021952 -0.019709 -85.744023 -10.206609 -0.019271 -90.321288 0.019895 -0.019803 -102.628141 0.024135 -0.019325 -76.761327 0.015246 -0.019290 -95.747716 0.021768 -0.019725 -95.747716 0.021764 -0.019721 -19.358650 1.347429 4.805582 -0.015181 -0.007089 50.049564 -0.017588 -0.010697 62.639815 6.502745 -0.183749 -2.187186 33.220814 12.497605 -55.207941 -35.705654 -17.921407 97.342067 -17.399429 0.050804 12.893599 73.422560 11.554289 -0.386233 95.209449 0.000029 0.000043 95.866759 0.000048 0.000043 62.558966 0.000041 0.000029 94.481597 0.000065 0.000017 95.142677 0.000064 0.000020 84.123082 -10.018040 -0.065741 88.768909 0.000059 0.000041 102.293387 0.000051 0.000038 74.893099 0.000049 0.000027 93.913455 0.000064 0.000021 94.635481 0.000059 0.000021 18.998892 -1.001501 -4.855903 0.000028 -0.000015 -49.530841 0.000043 -0.000026 -61.285293 -11.786960 9.281483 -115.867794 15.286062 3.714535 11.883787 0.257635 49.641542 5.743690 -15.739155 -32.822146 -2.259148 -0.001337 -1.865129 -0.070921 -17.493373 -20.696346 -8.956471 0.141054 42.052573 2.766610 9.831157 2.408851 18.926157 1.936054 -8.582507 0.020149 
0.000000 0.000000 0.000000 -0.000000 0.000000 -89.999982 -0.000000 0.000000 -0.000000 -0.000055 0.000003 0.000000 -2.244359 14.407321 -127.466343 4.475705 15.413819 -8.363634 -21.329533 3.174348 29.182379 12.406921 -3.493765 17.687070 0.000004 12.723187 0.000002 0.000001 2.186382 -0.000016 -0.000003 -4.553298 0.000001 -26.091953 -0.115889 -7.524698 -0.122534 11.777293 -74.606607 -44.503887 -15.025136 -57.198374 -22.575399 -7.246663 -17.023441 -75.173752 11.675957 0.122588 -97.140002 0.022283 -0.019643 -97.140009 0.022263 -0.019651 -63.961115 0.011091 -0.017802 -96.081576 0.021884 -0.019711 -96.081569 0.021882 -0.019716 -85.528325 -10.192264 -0.019260 -90.110440 0.019822 -0.019804 -102.621659 0.024133 -0.019325 -76.553232 0.015177 -0.019272 -95.542599 0.021696 -0.019730 -95.542599 0.021692 -0.019729 -19.322486 1.348082 4.765507 -0.015177 -0.007089 50.043140 -0.017595 -0.010700 62.648804 7.903973 -0.197387 -2.010768 35.766975 13.695026 -54.331884 -34.241057 -15.597328 94.870727 -15.759615 0.390148 15.854020 73.590043 11.558228 -0.373288 95.420523 0.000028 0.000045 95.971787 0.000043 0.000045 62.715610 0.000039 0.000026 94.640023 0.000064 0.000018 95.199061 0.000063 0.000019 84.234722 -10.037990 -0.055205 88.881381 0.000060 0.000040 102.338015 0.000050 0.000040 75.043794 0.000046 0.000025 94.076574 0.000065 0.000021 94.685622 0.000062 0.000021 19.039941 -0.614008 -4.834544 0.000036 -0.000017 -49.606872 0.000044 -0.000025 -61.428584 -11.345688 8.297432 -112.195426 15.900026 2.107529 10.047501 0.238826 48.577398 5.590315 -16.480476 -32.194711 -4.495062 -0.001242 -1.627065 -0.043628 -18.065304 -20.925683 -9.745146 0.136140 43.903896 2.462193 10.239516 0.595483 19.078144 1.555840 -8.787680 -0.030546 
